<svg width="45" height="36" viewBox="0 0 45 36" fill="none" xmlns="http://www.w3.org/2000/svg">
<path d="M44.6333 15.38L41.7533 6.74C41.1933 5.1 39.6733 4 37.9533 4H36.8333V2C36.8333 0.9 35.9333 0 34.8333 0H32.8333C31.7333 0 30.8333 0.9 30.8333 2V4H26.8333C24.6333 4 22.8333 5.8 22.8333 8V16H0.833313V26C0.833313 28.2 2.63331 30 4.83331 30H6.83331C6.83331 33.32 9.51331 36 12.8333 36C16.1533 36 18.8333 33.32 18.8333 30H26.8333C26.8333 33.32 29.5133 36 32.8333 36C36.1533 36 38.8333 33.32 38.8333 30H44.8333V16.64C44.8333 16.22 44.7733 15.8 44.6333 15.38ZM12.8333 32C11.7333 32 10.8333 31.1 10.8333 30C10.8333 28.9 11.7333 28 12.8333 28C13.9333 28 14.8333 28.9 14.8333 30C14.8333 31.1 13.9333 32 12.8333 32ZM32.8333 32C31.7333 32 30.8333 31.1 30.8333 30C30.8333 28.9 31.7333 28 32.8333 28C33.9333 28 34.8333 28.9 34.8333 30C34.8333 31.1 33.9333 32 32.8333 32ZM26.8333 16V8H37.9533L40.6133 16H26.8333Z" fill="#E66F0E"/>
<path d="M20.8333 11H18.8333V7H20.8333V4H0.833313V7H2.83331V11H0.833313V14H20.8333V11ZM9.33331 11H5.83331V7H9.33331V11ZM15.8333 11H12.3333V7H15.8333V11Z" fill="#E66F0E"/>
</svg>
