<svg width="48" height="48" viewBox="0 0 48 48" fill="none" xmlns="http://www.w3.org/2000/svg">
<path d="M17 31C16.1667 31 15.4587 30.708 14.876 30.124C14.292 29.5413 14 28.8333 14 28C14 27.1667 14.292 26.4587 14.876 25.876C15.4587 25.292 16.1667 25 17 25C17.8333 25 18.5413 25.292 19.124 25.876C19.708 26.4587 20 27.1667 20 28C20 28.8333 19.708 29.5413 19.124 30.124C18.5413 30.708 17.8333 31 17 31ZM24 37C23.1667 37 22.4587 36.708 21.876 36.124C21.292 35.5413 21 34.8333 21 34C21 33.1667 21.292 32.4587 21.876 31.876C22.4587 31.292 23.1667 31 24 31C24.8333 31 25.5413 31.292 26.124 31.876C26.708 32.4587 27 33.1667 27 34C27 34.8333 26.708 35.5413 26.124 36.124C25.5413 36.708 24.8333 37 24 37ZM17 43C16.1667 43 15.4587 42.708 14.876 42.124C14.292 41.5413 14 40.8333 14 40C14 39.1667 14.292 38.4587 14.876 37.876C15.4587 37.292 16.1667 37 17 37C17.8333 37 18.5413 37.292 19.124 37.876C19.708 38.4587 20 39.1667 20 40C20 40.8333 19.708 41.5413 19.124 42.124C18.5413 42.708 17.8333 43 17 43ZM31 31C30.1667 31 29.4587 30.708 28.876 30.124C28.292 29.5413 28 28.8333 28 28C28 27.1667 28.292 26.4587 28.876 25.876C29.4587 25.292 30.1667 25 31 25C31.8333 25 32.5413 25.292 33.124 25.876C33.708 26.4587 34 27.1667 34 28C34 28.8333 33.708 29.5413 33.124 30.124C32.5413 30.708 31.8333 31 31 31ZM31 43C30.1667 43 29.4587 42.708 28.876 42.124C28.292 41.5413 28 40.8333 28 40C28 39.1667 28.292 38.4587 28.876 37.876C29.4587 37.292 30.1667 37 31 37C31.8333 37 32.5413 37.292 33.124 37.876C33.708 38.4587 34 39.1667 34 40C34 40.8333 33.708 41.5413 33.124 42.124C32.5413 42.708 31.8333 43 31 43ZM38 37C37.1667 37 36.4587 36.708 35.876 36.124C35.292 35.5413 35 34.8333 35 34C35 33.1667 35.292 32.4587 35.876 31.876C36.4587 31.292 37.1667 31 38 31C38.8333 31 39.5413 31.292 40.124 31.876C40.708 32.4587 41 33.1667 41 34C41 34.8333 40.708 35.5413 40.124 36.124C39.5413 36.708 38.8333 37 38 37ZM10 37C9.16667 37 8.45867 36.708 7.876 36.124C7.292 35.5413 7 34.8333 7 34C7 33.1667 7.292 32.4587 7.876 31.876C8.45867 31.292 9.16667 31 10 31C10.8333 31 11.5413 31.292 12.124 31.876C12.708 32.4587 13 33.1667 13 34C13 34.8333 12.708 35.5413 12.124 36.124C11.5413 36.708 10.8333 37 10 37ZM16.8 17H31.2L31.8 15H16.2L16.8 17ZM16.8 21C15.9333 21 15.15 20.742 14.45 20.226C13.75 19.7087 13.2667 19.0333 13 18.2L12 15H10C8.9 15 7.958 14.608 7.174 13.824C6.39133 13.0413 6 12.1 6 11V5H42V11C42 12.1 41.6087 13.0413 40.826 13.824C40.042 14.608 39.1 15 38 15H36L34.7 18.4C34.4 19.1667 33.9167 19.7913 33.25 20.274C32.5833 20.758 31.8333 21 31 21H16.8Z" fill="#E66F0E"/>
</svg>
