<svg width="33" height="36" viewBox="0 0 33 36" fill="none" xmlns="http://www.w3.org/2000/svg">
<path d="M16.8333 21.7998L12.5733 25.9798C11.4533 27.0998 10.8333 28.5598 10.8333 30.1198C10.8333 33.3598 13.5333 35.9998 16.8333 35.9998C20.1333 35.9998 22.8333 33.3598 22.8333 30.1198C22.8333 28.5598 22.2133 27.0798 21.0933 25.9798L16.8333 21.7998Z" fill="#E66F0E"/>
<path d="M24.8333 8L23.9533 9.1C21.5933 12.04 16.8333 10.38 16.8333 6.6V0C16.8333 0 0.833313 8 0.833313 22C0.833313 27.84 3.95331 32.94 8.61331 35.72C7.49331 34.14 6.83331 32.2 6.83331 30.12C6.83331 27.48 7.87331 25 9.77331 23.12L16.8333 16.2L23.8933 23.14C25.7933 25 26.8333 27.48 26.8333 30.14C26.8333 32.18 26.2133 34.06 25.1333 35.64C28.9133 33.34 31.7133 29.52 32.5533 25.04C33.8733 17.94 30.4133 11.24 24.8333 8Z" fill="#E66F0E"/>
</svg>
