<svg width="48" height="48" viewBox="0 0 48 48" fill="none" xmlns="http://www.w3.org/2000/svg">
<path d="M22 42V32H26V42H22ZM38.15 36.95L31.05 29.9L33.9 27.05L40.95 34.15L38.15 36.95ZM9.85 36.95L7.05 34.15L14.1 27.05L16.95 29.9L9.85 36.95ZM16.8 18H31.2L31.8 16H16.2L16.8 18ZM16.8 22C15.9333 22 15.15 21.742 14.45 21.226C13.75 20.7087 13.2667 20.0333 13 19.2L12 16H10C8.9 16 7.958 15.608 7.174 14.824C6.39133 14.0413 6 13.1 6 12V6H42V12C42 13.1 41.6087 14.0413 40.826 14.824C40.042 15.608 39.1 16 38 16H36L34.7 19.4C34.4 20.1667 33.9167 20.7913 33.25 21.274C32.5833 21.758 31.8333 22 31 22H16.8Z" fill="#E66F0E"/>
</svg>
