<svg width="33" height="40" viewBox="0 0 33 40" fill="none" xmlns="http://www.w3.org/2000/svg">
<path d="M24.8333 4H22.8333V0H18.8333V4H14.8333V0H10.8333V4H8.83331C4.41331 4 0.833313 7.58 0.833313 12V32C0.833313 36.42 4.41331 40 8.83331 40H24.8333C29.2533 40 32.8333 36.42 32.8333 32V12C32.8333 7.58 29.2533 4 24.8333 4ZM16.8333 32C14.0733 32 11.8333 29.8 11.8333 27.08C11.8333 24.9 12.6933 24.3 16.8333 19.5C20.9333 24.26 21.8333 24.9 21.8333 27.08C21.8333 29.8 19.5933 32 16.8333 32ZM24.8333 16H8.83331V12H24.8333V16Z" fill="#E66F0E"/>
</svg>
