<svg width="48" height="48" viewBox="0 0 48 48" fill="none" xmlns="http://www.w3.org/2000/svg">
<path d="M16.8 17H31.2L31.8 15H16.2L16.8 17ZM26 43.6L22.2 42.4L23 39.8C23.0667 39.5333 23.1253 39.2667 23.176 39C23.2253 38.7333 23.25 38.4667 23.25 38.2C23.25 37.6667 23.192 37.1667 23.076 36.7C22.9587 36.2333 22.7333 35.7333 22.4 35.2C21.8333 34.3 21.4253 33.4667 21.176 32.7C20.9253 31.9333 20.7833 31.0167 20.75 29.95C20.75 29.5167 20.7833 29.0333 20.85 28.5C20.9167 27.9667 21.0333 27.4667 21.2 27L22 24.4L25.8 25.6L25 28.2C24.9 28.5 24.8333 28.7913 24.8 29.074C24.7667 29.358 24.75 29.65 24.75 29.95C24.75 30.5167 24.8087 31.008 24.926 31.424C25.042 31.8413 25.2667 32.3 25.6 32.8C26.1667 33.7 26.5833 34.5667 26.85 35.4C27.1167 36.2333 27.25 37.1667 27.25 38.2C27.25 38.6667 27.2167 39.1333 27.15 39.6C27.0833 40.0667 26.9667 40.5333 26.8 41L26 43.6ZM17.2 43.6L13.4 42.4L14.2 39.8C14.2667 39.5333 14.3253 39.2747 14.376 39.024C14.4253 38.7747 14.45 38.5 14.45 38.2C14.45 37.6333 14.3833 37.108 14.25 36.624C14.1167 36.1413 13.9 35.6667 13.6 35.2C13.0667 34.4333 12.6587 33.608 12.376 32.724C12.092 31.8413 11.95 30.9167 11.95 29.95C11.95 29.45 11.9833 28.95 12.05 28.45C12.1167 27.95 12.2333 27.4667 12.4 27L13.2 24.4L17 25.6L16.2 28.2C16.1 28.5 16.0333 28.808 16 29.124C15.9667 29.4413 15.95 29.7167 15.95 29.95C15.95 30.5833 16.0253 31.1253 16.176 31.576C16.3253 32.0253 16.5333 32.4333 16.8 32.8C17.3667 33.6 17.7833 34.4587 18.05 35.376C18.3167 36.292 18.45 37.2333 18.45 38.2C18.45 38.6667 18.4167 39.1333 18.35 39.6C18.2833 40.0667 18.1667 40.5333 18 41L17.2 43.6ZM34.6 43.6L30.8 42.4L31.6 39.8C31.6667 39.5333 31.7253 39.2667 31.776 39C31.8253 38.7333 31.85 38.4667 31.85 38.2C31.85 37.6667 31.7833 37.15 31.65 36.65C31.5167 36.15 31.3 35.6667 31 35.2C30.4667 34.4333 30.0587 33.6 29.776 32.7C29.492 31.8 29.35 30.8833 29.35 29.95C29.35 29.45 29.3833 28.9587 29.45 28.476C29.5167 27.992 29.6333 27.5 29.8 27L30.6 24.4L34.4 25.6L33.6 28.2C33.5 28.5667 33.4333 28.8747 33.4 29.124C33.3667 29.3747 33.35 29.65 33.35 29.95C33.35 30.5167 33.4167 31.0167 33.55 31.45C33.6833 31.8833 33.9 32.3333 34.2 32.8C34.7667 33.6333 35.1833 34.5 35.45 35.4C35.7167 36.3 35.85 37.2333 35.85 38.2C35.85 38.6667 35.8167 39.1333 35.75 39.6C35.6833 40.0667 35.5667 40.5333 35.4 41L34.6 43.6ZM16.8 21C15.9333 21 15.15 20.742 14.45 20.226C13.75 19.7087 13.2667 19.0333 13 18.2L12 15H10C8.9 15 7.958 14.608 7.174 13.824C6.39133 13.0413 6 12.1 6 11V5H42V11C42 12.1 41.6087 13.0413 40.826 13.824C40.042 14.608 39.1 15 38 15H36L34.7 18.4C34.4 19.1667 33.9167 19.7913 33.25 20.274C32.5833 20.758 31.8333 21 31 21H16.8Z" fill="#E66F0E"/>
</svg>
