<svg width="48" height="48" viewBox="0 0 48 48" fill="none" xmlns="http://www.w3.org/2000/svg">
<path d="M24 42C21.0667 42 18.2587 41.45 15.576 40.35C12.892 39.25 10.5167 37.65 8.45 35.55L11.3 32.7C13 34.4 14.95 35.708 17.15 36.624C19.35 37.5413 21.65 38 24.05 38C26.45 38 28.742 37.55 30.926 36.65C33.1087 35.75 35.05 34.45 36.75 32.75L39.55 35.55C37.45 37.65 35.0667 39.25 32.4 40.35C29.7333 41.45 26.9333 42 24 42ZM24 34C22.1333 34 20.35 33.65 18.65 32.95C16.95 32.25 15.4333 31.2333 14.1 29.9L16.9 27.1C17.8667 28.0667 18.9587 28.7913 20.176 29.274C21.392 29.758 22.6667 30 24 30C25.3333 30 26.6087 29.758 27.826 29.274C29.042 28.7913 30.1333 28.0667 31.1 27.1L33.9 29.9C32.5667 31.2333 31.05 32.25 29.35 32.95C27.65 33.65 25.8667 34 24 34ZM16.8 18H31.2L31.8 16H16.2L16.8 18ZM16.8 22C15.9333 22 15.15 21.742 14.45 21.226C13.75 20.7087 13.2667 20.0333 13 19.2L12 16H10C8.9 16 7.958 15.608 7.174 14.824C6.39133 14.0413 6 13.1 6 12V6H42V12C42 13.1 41.6087 14.0413 40.826 14.824C40.042 15.608 39.1 16 38 16H36L34.7 19.4C34.4 20.1667 33.9167 20.7913 33.25 21.274C32.5833 21.758 31.8333 22 31 22H16.8Z" fill="#E66F0E"/>
</svg>
