<svg width="41" height="34" viewBox="0 0 41 34" fill="none" xmlns="http://www.w3.org/2000/svg">
<path d="M25.5 28C25.5 31.3 22.8 34 19.5 34C16.2 34 13.5 31.3 13.5 28H17.5C17.5 29.1 18.4 30 19.5 30C20.6 30 21.5 29.1 21.5 28C21.5 26.9 20.6 26 19.5 26H0.499969V22H19.5C22.8 22 25.5 24.7 25.5 28ZM34.5 7C34.5 3.14 31.36 0 27.5 0C23.64 0 20.5 3.14 20.5 7H24.5C24.5 5.34 25.84 4 27.5 4C29.16 4 30.5 5.34 30.5 7C30.5 8.66 29.16 10 27.5 10H0.499969V14H27.5C31.36 14 34.5 10.86 34.5 7ZM33.5 16H0.499969V20H33.5C35.16 20 36.5 21.34 36.5 23C36.5 24.66 35.16 26 33.5 26V30C37.36 30 40.5 26.86 40.5 23C40.5 19.14 37.36 16 33.5 16Z" fill="#E66F0E"/>
</svg>
