<svg width="49" height="48" viewBox="0 0 49 48" fill="none" xmlns="http://www.w3.org/2000/svg">
<path d="M40.5 28C42.7091 28 44.5 26.2091 44.5 24C44.5 21.7909 42.7091 20 40.5 20C38.2908 20 36.5 21.7909 36.5 24C36.5 26.2091 38.2908 28 40.5 28Z" fill="#E66F0E"/>
<path d="M8.49997 28C10.7091 28 12.5 26.2091 12.5 24C12.5 21.7909 10.7091 20 8.49997 20C6.29083 20 4.49997 21.7909 4.49997 24C4.49997 26.2091 6.29083 28 8.49997 28Z" fill="#E66F0E"/>
<path d="M24.5 44C26.7091 44 28.5 42.2091 28.5 40C28.5 37.7909 26.7091 36 24.5 36C22.2908 36 20.5 37.7909 20.5 40C20.5 42.2091 22.2908 44 24.5 44Z" fill="#E66F0E"/>
<path d="M20.6 17.1802L12.56 9.1002H12.54L11.92 8.4602L9.07995 11.2802L17.12 19.3802L17.1399 19.3602L17.76 20.0002L20.6 17.1802ZM28.386 17.2342L37.1959 8.4502L40.02 11.2802L31.2099 20.0662L28.386 17.2342ZM20.52 30.7202L17.68 27.9002L9.61995 35.9202L8.97995 36.5802L11.8 39.4002L19.86 31.3602L20.52 30.7202ZM40.02 36.6002L32.04 28.5802L31.32 27.8802L28.5 30.7002L36.4799 38.7202L37.18 39.4202L40.02 36.6002Z" fill="#E66F0E"/>
<path d="M24.5 12C26.7091 12 28.5 10.2091 28.5 8C28.5 5.79086 26.7091 4 24.5 4C22.2908 4 20.5 5.79086 20.5 8C20.5 10.2091 22.2908 12 24.5 12Z" fill="#E66F0E"/>
</svg>
