<svg width="40" height="22" viewBox="0 0 40 22" fill="none" xmlns="http://www.w3.org/2000/svg">
<path d="M6.7 12C9.08 12 9.54 14 13.36 14C17.26 14 17.54 12 20.02 12C22.4 12 22.86 14 26.68 14C30.58 14 30.86 12 33.34 12C35.72 12 36.14 13.96 39.96 14V10C37.58 10 37.12 8 33.3 8C29.4 8 29.12 10 26.64 10C24.26 10 23.8 8 19.98 8C16.08 8 15.8 10 13.32 10C10.94 10 10.48 8 6.66 8C2.76 8 2.48 10 0 10V14C3.8 14 4.34 12 6.7 12ZM33.34 16C29.44 16 29.16 18 26.68 18C24.3 18 23.84 16 20.02 16C16.12 16 15.82 18 13.34 18C10.86 18 10.58 16 6.68 16C2.78 16 2.48 18 0 18V22C3.9 22 4.22 20 6.68 20C9.16 20 9.44 22 13.34 22C17.24 22 17.54 20 20.02 20C22.4 20 22.86 22 26.68 22C30.56 22 30.86 20 33.34 20C35.72 20 36.18 22 40 22V18C37.52 18 37.24 16 33.34 16ZM6.7 4C9.08 4 9.54 6 13.36 6C17.26 6 17.54 4 20.02 4C22.4 4 22.86 6 26.68 6C30.58 6 30.86 4 33.34 4C35.72 4 36.14 5.96 39.96 6V2C37.58 2 37.12 0 33.3 0C29.4 0 29.12 2 26.64 2C24.26 2 23.8 0 19.98 0C16.08 0 15.8 2 13.32 2C10.94 2 10.48 0 6.66 0C2.76 0 2.48 2 0 2V6C3.8 6 4.34 4 6.7 4Z" fill="#E66F0E"/>
</svg>
