<svg width="48" height="48" viewBox="0 0 48 48" fill="none" xmlns="http://www.w3.org/2000/svg">
<path d="M31.8 9.99997C31.46 9.99997 31.16 10.18 30.98 10.46L30.84 10.76L20.48 34.06C20.16 34.64 19.96 35.28 19.96 35.98C19.96 38.2 21.76 40 23.98 40C25.9 40 27.52 38.64 27.9 36.82L27.92 36.76L32.8 11C32.8 10.44 32.36 9.99997 31.8 9.99997ZM2 18L6 22C11.76 16.24 19.58 13.84 27.06 14.76L29.44 9.39997C19.78 7.67997 9.48 10.54 2 18ZM42 22L46 18C42.72 14.72 38.9 12.36 34.82 10.86L33.76 16.5C36.76 17.74 39.56 19.56 42 22ZM34 30L38 26C36.4 24.4 34.6 23.16 32.68 22.22L31.58 28.06C32.42 28.6 33.24 29.24 34 30ZM10 26L14 30C16.26 27.74 19.12 26.42 22.06 26L24.62 20.24C19.36 20.08 14.02 21.98 10 26Z" fill="#E66F0E"/>
</svg>
