<svg width="48" height="48" viewBox="0 0 48 48" fill="none" xmlns="http://www.w3.org/2000/svg">
<path d="M6 42C4.9 42 3.95867 41.6087 3.176 40.826C2.392 40.042 2 39.1 2 38V32H6V38H12V42H6ZM15.6 34L17.6 23.8L14 25.2V32H10V22.6L17.9 19.2C19.0667 18.7 19.9253 18.3753 20.476 18.226C21.0253 18.0753 21.5333 18 22 18C22.7 18 23.35 18.1833 23.95 18.55C24.55 18.9167 25.0333 19.4 25.4 20L27.4 23.2L27.8 23.8C27.9333 24 28.0833 24.1833 28.25 24.35C26.6167 25.4167 25.2667 26.792 24.2 28.476C23.1333 30.1587 22.45 32 22.15 34H15.6ZM25 17C23.9 17 22.9587 16.608 22.176 15.824C21.392 15.0413 21 14.1 21 13C21 11.9 21.392 10.958 22.176 10.174C22.9587 9.39133 23.9 9 25 9C26.1 9 27.042 9.39133 27.826 10.174C28.6087 10.958 29 11.9 29 13C29 14.1 28.6087 15.0413 27.826 15.824C27.042 16.608 26.1 17 25 17ZM2 12V6C2 4.9 2.392 3.958 3.176 3.174C3.95867 2.39133 4.9 2 6 2H12V6H6V12H2ZM38 12V6H32V2H38C39.1 2 40.042 2.39133 40.826 3.174C41.6087 3.958 42 4.9 42 6V12H38ZM36 46C33.2333 46 30.8753 45.0253 28.926 43.076C26.9753 41.1253 26 38.7667 26 36C26 33.2333 26.9753 30.8747 28.926 28.924C30.8753 26.9747 33.2333 26 36 26C38.7667 26 41.1253 26.9747 43.076 28.924C45.0253 30.8747 46 33.2333 46 36C46 38.7667 45.0253 41.1253 43.076 43.076C41.1253 45.0253 38.7667 46 36 46ZM35 38H37V30H35V38ZM36 42C36.2667 42 36.5 41.9 36.7 41.7C36.9 41.5 37 41.2667 37 41C37 40.7333 36.9 40.5 36.7 40.3C36.5 40.1 36.2667 40 36 40C35.7333 40 35.5 40.1 35.3 40.3C35.1 40.5 35 40.7333 35 41C35 41.2667 35.1 41.5 35.3 41.7C35.5 41.9 35.7333 42 36 42Z" fill="#E66F0E"/>
</svg>
