<svg width="48" height="48" viewBox="0 0 48 48" fill="none" xmlns="http://www.w3.org/2000/svg">
<path d="M12 44C10.9 44 9.95867 43.6087 9.176 42.826C8.392 42.042 8 41.1 8 40V12C8 9.8 8.78333 7.91667 10.35 6.35C11.9167 4.78333 13.8 4 16 4H32C34.2 4 36.0833 4.78333 37.65 6.35C39.2167 7.91667 40 9.8 40 12V40C40 41.1 39.6087 42.042 38.826 42.826C38.042 43.6087 37.1 44 36 44H12ZM18 38C19.8 38 20.9753 37.6667 21.526 37C22.0753 36.3333 22.9 36 24 36C25.1 36 25.9253 36.3333 26.476 37C27.0253 37.6667 28.2 38 30 38C31.8 38 33 37.6667 33.6 37C34.2 36.3333 35 36 36 36V32C34.2 32 33 32.3333 32.4 33C31.8 33.6667 31 34 30 34C29 34 28.2 33.6667 27.6 33C27 32.3333 25.8 32 24 32C22.2 32 21.0253 32.3333 20.476 33C19.9253 33.6667 19.1 34 18 34C16.9 34 16.0753 33.6667 15.526 33C14.9753 32.3333 13.8 32 12 32V36C13.1 36 13.9253 36.3333 14.476 37C15.0253 37.6667 16.2 38 18 38ZM24.25 29.9C26.6167 29.9 28.4667 29.1913 29.8 27.774C31.1333 26.358 31.8 24.8 31.8 23.1C31.8 22.0333 31.5667 20.992 31.1 19.976C30.6333 18.9587 29.8833 18.1 28.85 17.4C27.8833 16.7333 27.1087 15.9833 26.526 15.15C25.942 14.3167 25.65 13.3667 25.65 12.3C25.65 11.9333 25.6753 11.608 25.726 11.324C25.7753 11.0413 25.8667 10.7167 26 10.35C26.0333 10.25 26.0253 10.1667 25.976 10.1C25.9253 10.0333 25.85 10 25.75 10C25.65 10 25.5753 10.008 25.526 10.024C25.4753 10.0413 25.3833 10.0833 25.25 10.15C23.75 10.8167 22.5913 11.7913 21.774 13.074C20.958 14.358 20.55 15.9 20.55 17.7C20.55 18.2 20.5833 18.6413 20.65 19.024C20.7167 19.408 20.7833 19.7333 20.85 20L21.1 20.824C21.1667 21.0413 21.2 21.2333 21.2 21.4C21.2 21.5667 21.1587 21.7167 21.076 21.85C20.992 21.9833 20.85 22.05 20.65 22.05C20.3167 22.05 19.942 21.6747 19.526 20.924C19.1087 20.1747 18.9 19.3 18.9 18.3C18.9 18.1333 18.9087 17.958 18.926 17.774C18.942 17.5913 18.9667 17.4 19 17.2C19 17.1 18.9667 17.008 18.9 16.924C18.8333 16.8413 18.7333 16.8 18.6 16.8C18.3667 16.8 18.1587 16.85 17.976 16.95C17.792 17.05 17.65 17.1833 17.55 17.35C16.9833 18.15 16.592 18.958 16.376 19.774C16.1587 20.5913 16.05 21.3833 16.05 22.15C16.05 24.4167 16.8667 26.2747 18.5 27.724C20.1333 29.1747 22.05 29.9 24.25 29.9ZM24.5 26.55C24.1333 26.55 23.7253 26.4667 23.276 26.3C22.8253 26.1333 22.4667 25.9167 22.2 25.65C22.8 25.55 23.3167 25.2333 23.75 24.7C24.1833 24.1667 24.4 23.5667 24.4 22.9C24.4 22.6333 24.3833 22.3413 24.35 22.024C24.3167 21.708 24.2667 21.3667 24.2 21C24.1 20.4667 24.0833 20.008 24.15 19.624C24.2167 19.2413 24.4167 18.9 24.75 18.6C24.8833 18.9667 25.0833 19.3167 25.35 19.65C25.6167 19.9833 25.95 20.3167 26.35 20.65C26.75 20.9833 27.092 21.358 27.376 21.774C27.6587 22.1913 27.8 22.6667 27.8 23.2C27.8 24.1 27.4833 24.8833 26.85 25.55C26.2167 26.2167 25.4333 26.55 24.5 26.55Z" fill="#E66F0E"/>
</svg>
