<svg width="49" height="48" viewBox="0 0 49 48" fill="none" xmlns="http://www.w3.org/2000/svg">
<path d="M44.1667 42.0003C41.9467 42.0003 40.7067 41.2603 39.8067 40.7203C39.0667 40.2803 38.6067 40.0003 37.5067 40.0003C36.3867 40.0003 35.9467 40.2603 35.2067 40.7203C34.2867 41.2603 33.0667 42.0003 30.8467 42.0003C28.6267 42.0003 27.3867 41.2603 26.4867 40.7203C25.7467 40.2803 25.2867 40.0003 24.1867 40.0003C23.0667 40.0003 22.6267 40.2603 21.8867 40.7203C20.9667 41.2603 19.7267 42.0003 17.5067 42.0003C15.2867 42.0003 14.0467 41.2603 13.1467 40.7203C12.4067 40.2603 11.9467 40.0003 10.8467 40.0003C9.74666 40.0003 9.28666 40.2603 8.54666 40.7203C7.62666 41.2603 6.38666 42.0003 4.16666 42.0003V38.0003C5.28666 38.0003 5.72666 37.7403 6.46666 37.2803C7.38666 36.7403 8.62666 36.0003 10.8467 36.0003C13.0667 36.0003 14.3067 36.7403 15.2067 37.2803C15.9467 37.7403 16.3867 38.0003 17.5067 38.0003C18.6267 38.0003 19.0667 37.7403 19.8067 37.2803C20.7267 36.7403 21.9667 36.0003 24.1867 36.0003C26.4067 36.0003 27.6467 36.7403 28.5467 37.2803C29.2867 37.7203 29.7467 38.0003 30.8467 38.0003C31.9467 38.0003 32.4067 37.7403 33.1467 37.2803C34.0467 36.7403 35.2867 36.0003 37.5067 36.0003C39.7267 36.0003 40.9667 36.7403 41.8667 37.2803C42.6067 37.7403 43.0467 38.0003 44.1667 38.0003V42.0003ZM44.1667 33.0003C41.9467 33.0003 40.7067 32.2603 39.8067 31.7203C39.0667 31.2803 38.6067 31.0003 37.5067 31.0003C36.3867 31.0003 35.9467 31.2603 35.2067 31.7203C34.3067 32.2603 33.0667 33.0003 30.8467 33.0003C28.6267 33.0003 27.3867 32.2603 26.4867 31.7203C25.7467 31.2803 25.2867 31.0003 24.1867 31.0003C23.0667 31.0003 22.6267 31.2603 21.8867 31.7203C20.9867 32.2603 19.7467 33.0003 17.5267 33.0003C15.3067 33.0003 14.0667 32.2603 13.1667 31.7203C12.4267 31.2803 11.9667 31.0003 10.8667 31.0003C9.76666 31.0003 9.30666 31.2603 8.56666 31.7203C7.62666 32.2603 6.38666 33.0003 4.16666 33.0003V29.0003C5.28666 29.0003 5.72666 28.7403 6.46666 28.2803C7.36666 27.7403 8.60666 27.0003 10.8267 27.0003C13.0467 27.0003 14.2867 27.7403 15.1867 28.2803C15.9267 28.7203 16.3867 29.0003 17.4867 29.0003C18.6067 29.0003 19.0467 28.7403 19.7867 28.2803C20.6867 27.7403 21.9267 27.0003 24.1467 27.0003C26.3667 27.0003 27.6067 27.7403 28.5067 28.2803C29.2467 28.7203 29.7067 29.0003 30.8067 29.0003C31.9067 29.0003 32.3667 28.7403 33.1067 28.2803C34.0067 27.7403 35.2467 27.0003 37.4667 27.0003C39.6867 27.0003 40.9267 27.7403 41.8267 28.2803C42.5667 28.7203 43.0267 29.0003 44.1267 29.0003V33.0003H44.1667ZM17.5067 24.0003C18.6267 24.0003 19.0667 23.7403 19.8067 23.2803C20.7267 22.7403 21.9667 22.0003 24.1867 22.0003C26.4067 22.0003 27.6467 22.7403 28.5467 23.2803C29.2867 23.7203 29.7467 24.0003 30.8467 24.0003C31.9467 24.0003 32.4067 23.7403 33.1467 23.2803C33.3867 23.1403 33.6667 22.9803 33.9667 22.8203L21.1267 10.0003C18.0267 6.90032 15.1667 5.98032 10.1667 6.00032V11.0003C13.8067 10.9803 15.9467 11.7803 18.1667 14.0003L20.1667 16.0003L13.6667 22.5003C14.2867 22.7403 14.7867 23.0403 15.2067 23.2803C15.9467 23.7403 16.3867 24.0003 17.5067 24.0003Z" fill="#E66F0E"/>
<path d="M33.1667 16C35.9281 16 38.1667 13.7614 38.1667 11C38.1667 8.23858 35.9281 6 33.1667 6C30.4052 6 28.1667 8.23858 28.1667 11C28.1667 13.7614 30.4052 16 33.1667 16Z" fill="#E66F0E"/>
</svg>
