<svg width="48" height="48" viewBox="0 0 48 48" fill="none" xmlns="http://www.w3.org/2000/svg">
<path d="M14 38H34V40C34 42.2 32.2 44 30 44H18C15.8 44 14 42.2 14 40V38ZM14 36H34V26H14V36ZM34 6V18L27.7 16.68C27.68 16.68 27.68 16.7 27.66 16.72C30.76 17.96 33.1 20.68 33.8 24H14.2C14.88 20.68 17.24 17.96 20.34 16.72C19.68 16.2 19.14 15.56 18.74 14.82L10 13V11L18.74 9.18C19.74 7.3 21.72 6 24 6C25.4 6 26.68 6.5 27.7 7.32L34 6ZM26 12C25.94 10.82 25.1 10 24 10C22.9 10 22 10.9 22 12C22 13.1 22.9 14 24 14C25.1 14 26 13.1 26 12Z" fill="#E66F0E"/>
</svg>
