<svg width="41" height="44" viewBox="0 0 41 44" fill="none" xmlns="http://www.w3.org/2000/svg">
<path d="M32.6733 10.04C31.7333 4.36 26.7733 0 20.8333 0C16.4733 0 12.4933 2.36 10.3933 6.12C5.01331 6.82 0.833313 11.48 0.833313 17C0.833313 23.06 5.77331 28 11.8333 28H31.8333C36.7933 28 40.8333 23.96 40.8333 19C40.8333 14.32 37.2533 10.46 32.6733 10.04Z" fill="#E66F0E"/>
<path d="M26.4333 30L20.6333 36.64L24.6333 38.64L19.9333 44H25.2333L31.0333 37.36L27.0333 35.36L31.7333 30H26.4333Z" fill="#E66F0E"/>
<path d="M14.4333 30L8.63329 36.64L12.6333 38.64L7.93329 44H13.2333L19.0333 37.36L15.0333 35.36L19.7333 30H14.4333Z" fill="#E66F0E"/>
</svg>
