<svg width="48" height="48" viewBox="0 0 48 48" fill="none" xmlns="http://www.w3.org/2000/svg">
<path d="M38 23H36V17H40V13H35.3C33.66 8.34 29.22 5 24 5C18.78 5 14.34 8.34 12.7 13H8V17H12V23H10C7.8 23 6 24.8 6 27V31C6 33.2 7.8 35 10 35H12V41H8V45H40V41H36V35H38C40.2 35 42 33.2 42 31V27C42 24.8 40.2 23 38 23ZM24 36C20.14 36 17 32.86 17 29C17 25.14 20.14 22 24 22C27.86 22 31 25.14 31 29C31 32.86 27.86 36 24 36Z" fill="#E66F0E"/>
<path d="M24 32C25.6569 32 27 30.6569 27 29C27 27.3431 25.6569 26 24 26C22.3431 26 21 27.3431 21 29C21 30.6569 22.3431 32 24 32Z" fill="#E66F0E"/>
</svg>
