<svg width="48" height="48" viewBox="0 0 48 48" fill="none" xmlns="http://www.w3.org/2000/svg">
<path d="M28.9798 10.96C31.1798 10.96 32.9798 9.15996 32.9798 6.95996C32.9798 4.75996 31.1798 2.95996 28.9798 2.95996C26.7798 2.95996 24.9798 4.75996 24.9798 6.95996C24.9798 9.15996 26.7798 10.96 28.9798 10.96ZM21.7798 38.76L23.7798 29.96L27.9798 33.96V45.96H31.9798V30.96L27.7798 26.96L28.9798 20.96C31.5798 23.96 35.5798 25.96 39.9798 25.96V21.96C36.1798 21.96 32.9798 19.96 31.3798 17.16L29.3798 13.96C28.5798 12.76 27.3798 11.96 25.9798 11.96C25.3798 11.96 24.9798 12.16 24.3798 12.16L13.9798 16.56V25.96H17.9798V19.16L21.5798 17.76L18.3798 33.96L8.57978 31.96L7.77979 35.96L21.7798 38.76Z" fill="#E66F0E"/>
</svg>
