<svg width="48" height="48" viewBox="0 0 48 48" fill="none" xmlns="http://www.w3.org/2000/svg">
<path d="M24 44C23.5 44 23.008 43.9 22.524 43.7C22.0413 43.5 21.6 43.2 21.2 42.8L5.2 26.8C4.8 26.4 4.5 25.9587 4.3 25.476C4.1 24.992 4 24.5 4 24C4 23.5 4.1 23.008 4.3 22.524C4.5 22.0413 4.8 21.6 5.2 21.2L21.2 5.2C21.6 4.8 22.0413 4.5 22.524 4.3C23.008 4.1 23.5 4 24 4C24.5 4 24.992 4.1 25.476 4.3C25.9587 4.5 26.4 4.8 26.8 5.2L42.8 21.2C43.2 21.6 43.5 22.0413 43.7 22.524C43.9 23.008 44 23.5 44 24C44 24.5 43.9 24.992 43.7 25.476C43.5 25.9587 43.2 26.4 42.8 26.8L26.8 42.8C26.4 43.2 25.9587 43.5 25.476 43.7C24.992 43.9 24.5 44 24 44ZM26.3 26L22.55 29.8C22.1833 30.1667 22 30.6247 22 31.174C22 31.7247 22.2 32.2 22.6 32.6C22.9667 32.9667 23.4333 33.15 24 33.15C24.5667 33.15 25.0333 32.9667 25.4 32.6L32.6 25.4C33 25 33.2 24.5333 33.2 24C33.2 23.4667 33 23 32.6 22.6L25.4 15.4C25.0333 15.0333 24.5753 14.8413 24.026 14.824C23.4753 14.808 23 15 22.6 15.4C22.2333 15.7667 22.0413 16.2247 22.024 16.774C22.008 17.3247 22.1833 17.8 22.55 18.2L26.3 22H16C15.4333 22 14.958 22.1913 14.574 22.574C14.1913 22.958 14 23.4333 14 24C14 24.5667 14.1913 25.0413 14.574 25.424C14.958 25.808 15.4333 26 16 26H26.3Z" fill="#E66F0E"/>
</svg>
